<mxfile host="app.diagrams.net" agent="Mozilla/5.0 (Macintosh; Intel Mac OS X 10_15_7) AppleWebKit/537.36 (KHTML, like Gecko) Chrome/129.0.0.0 Safari/537.36" version="24.7.17">
  <diagram id="C5RBs43oDa-KdzZeNtuy" name="Page-1">
    <mxGraphModel grid="1" page="1" gridSize="10" guides="1" tooltips="1" connect="1" arrows="1" fold="1" pageScale="1" pageWidth="827" pageHeight="1169" math="0" shadow="0">
      <root>
        <mxCell id="WIyWlLk6GJQsqaUBKTNV-0" />
        <mxCell id="WIyWlLk6GJQsqaUBKTNV-1" parent="WIyWlLk6GJQsqaUBKTNV-0" />
        <mxCell id="aeXs7rcb2RjD_l7bmALQ-0" value="Idle" style="rounded=1;whiteSpace=wrap;html=1;fillColor=default;shadow=1;" vertex="1" parent="WIyWlLk6GJQsqaUBKTNV-1">
          <mxGeometry x="480" y="120" width="140" height="70" as="geometry" />
        </mxCell>
        <mxCell id="aeXs7rcb2RjD_l7bmALQ-1" value="TakingOrder" style="rounded=1;whiteSpace=wrap;html=1;" vertex="1" parent="WIyWlLk6GJQsqaUBKTNV-1">
          <mxGeometry x="200" y="280" width="120" height="60" as="geometry" />
        </mxCell>
        <mxCell id="aeXs7rcb2RjD_l7bmALQ-2" value="ProcessingPayment" style="rounded=1;whiteSpace=wrap;html=1;" vertex="1" parent="WIyWlLk6GJQsqaUBKTNV-1">
          <mxGeometry x="80" y="700" width="120" height="60" as="geometry" />
        </mxCell>
        <mxCell id="aeXs7rcb2RjD_l7bmALQ-3" value="GeneratingReport" style="rounded=1;whiteSpace=wrap;html=1;" vertex="1" parent="WIyWlLk6GJQsqaUBKTNV-1">
          <mxGeometry x="480" y="1120" width="120" height="60" as="geometry" />
        </mxCell>
        <mxCell id="aeXs7rcb2RjD_l7bmALQ-4" value="RecordingSale" style="rounded=1;whiteSpace=wrap;html=1;" vertex="1" parent="WIyWlLk6GJQsqaUBKTNV-1">
          <mxGeometry y="980" width="120" height="60" as="geometry" />
        </mxCell>
        <mxCell id="aeXs7rcb2RjD_l7bmALQ-5" value="PaymentSuccessful" style="rounded=1;whiteSpace=wrap;html=1;" vertex="1" parent="WIyWlLk6GJQsqaUBKTNV-1">
          <mxGeometry y="840" width="120" height="60" as="geometry" />
        </mxCell>
        <mxCell id="aeXs7rcb2RjD_l7bmALQ-6" value="OrderValid" style="rounded=1;whiteSpace=wrap;html=1;" vertex="1" parent="WIyWlLk6GJQsqaUBKTNV-1">
          <mxGeometry x="80" y="555" width="120" height="60" as="geometry" />
        </mxCell>
        <mxCell id="aeXs7rcb2RjD_l7bmALQ-7" value="OrderInvalid" style="rounded=1;whiteSpace=wrap;html=1;" vertex="1" parent="WIyWlLk6GJQsqaUBKTNV-1">
          <mxGeometry x="400" y="555" width="120" height="60" as="geometry" />
        </mxCell>
        <mxCell id="aeXs7rcb2RjD_l7bmALQ-8" value="PaymentFailed" style="rounded=1;whiteSpace=wrap;html=1;" vertex="1" parent="WIyWlLk6GJQsqaUBKTNV-1">
          <mxGeometry x="580" y="840" width="120" height="60" as="geometry" />
        </mxCell>
        <mxCell id="aeXs7rcb2RjD_l7bmALQ-9" value="" style="endArrow=classic;html=1;rounded=0;exitX=0;exitY=0.5;exitDx=0;exitDy=0;entryX=0.5;entryY=0;entryDx=0;entryDy=0;edgeStyle=elbowEdgeStyle;elbow=vertical;" edge="1" parent="WIyWlLk6GJQsqaUBKTNV-1" source="aeXs7rcb2RjD_l7bmALQ-0" target="aeXs7rcb2RjD_l7bmALQ-1">
          <mxGeometry relative="1" as="geometry">
            <mxPoint x="280" y="370" as="sourcePoint" />
            <mxPoint x="380" y="370" as="targetPoint" />
          </mxGeometry>
        </mxCell>
        <mxCell id="aeXs7rcb2RjD_l7bmALQ-11" value="Menerima Pesanan" style="edgeLabel;html=1;align=center;verticalAlign=middle;resizable=0;points=[];" vertex="1" connectable="0" parent="aeXs7rcb2RjD_l7bmALQ-9">
          <mxGeometry x="-0.0535" y="-2" relative="1" as="geometry">
            <mxPoint x="-119" y="-3" as="offset" />
          </mxGeometry>
        </mxCell>
        <mxCell id="aeXs7rcb2RjD_l7bmALQ-12" value="" style="endArrow=classic;html=1;rounded=0;exitX=0.5;exitY=1;exitDx=0;exitDy=0;" edge="1" parent="WIyWlLk6GJQsqaUBKTNV-1" source="aeXs7rcb2RjD_l7bmALQ-1" target="aeXs7rcb2RjD_l7bmALQ-14">
          <mxGeometry relative="1" as="geometry">
            <mxPoint x="290" y="370" as="sourcePoint" />
            <mxPoint x="390" y="370" as="targetPoint" />
          </mxGeometry>
        </mxCell>
        <mxCell id="aeXs7rcb2RjD_l7bmALQ-13" value="Memvalidasi Pesanan" style="edgeLabel;resizable=0;html=1;;align=center;verticalAlign=middle;" connectable="0" vertex="1" parent="aeXs7rcb2RjD_l7bmALQ-12">
          <mxGeometry relative="1" as="geometry" />
        </mxCell>
        <mxCell id="aeXs7rcb2RjD_l7bmALQ-14" value="ValidatingOrder" style="rounded=1;whiteSpace=wrap;html=1;" vertex="1" parent="WIyWlLk6GJQsqaUBKTNV-1">
          <mxGeometry x="200" y="420" width="120" height="60" as="geometry" />
        </mxCell>
        <mxCell id="aeXs7rcb2RjD_l7bmALQ-16" value="" style="endArrow=classic;html=1;rounded=0;exitX=0.25;exitY=1;exitDx=0;exitDy=0;entryX=0.5;entryY=0;entryDx=0;entryDy=0;" edge="1" parent="WIyWlLk6GJQsqaUBKTNV-1" source="aeXs7rcb2RjD_l7bmALQ-14" target="aeXs7rcb2RjD_l7bmALQ-6">
          <mxGeometry relative="1" as="geometry">
            <mxPoint x="290" y="370" as="sourcePoint" />
            <mxPoint x="390" y="370" as="targetPoint" />
          </mxGeometry>
        </mxCell>
        <mxCell id="aeXs7rcb2RjD_l7bmALQ-17" value="Label" style="edgeLabel;resizable=0;html=1;;align=center;verticalAlign=middle;" connectable="0" vertex="1" parent="aeXs7rcb2RjD_l7bmALQ-16">
          <mxGeometry relative="1" as="geometry" />
        </mxCell>
        <mxCell id="aeXs7rcb2RjD_l7bmALQ-18" value="Pesanan Valid" style="edgeLabel;html=1;align=center;verticalAlign=middle;resizable=0;points=[];" vertex="1" connectable="0" parent="aeXs7rcb2RjD_l7bmALQ-16">
          <mxGeometry x="-0.0272" y="3" relative="1" as="geometry">
            <mxPoint x="-1" as="offset" />
          </mxGeometry>
        </mxCell>
        <mxCell id="aeXs7rcb2RjD_l7bmALQ-19" value="" style="endArrow=classic;html=1;rounded=0;exitX=0.75;exitY=1;exitDx=0;exitDy=0;entryX=0.25;entryY=0;entryDx=0;entryDy=0;" edge="1" parent="WIyWlLk6GJQsqaUBKTNV-1" source="aeXs7rcb2RjD_l7bmALQ-14" target="aeXs7rcb2RjD_l7bmALQ-7">
          <mxGeometry relative="1" as="geometry">
            <mxPoint x="290" y="370" as="sourcePoint" />
            <mxPoint x="390" y="370" as="targetPoint" />
          </mxGeometry>
        </mxCell>
        <mxCell id="aeXs7rcb2RjD_l7bmALQ-20" value="Pesanan tidak Valid" style="edgeLabel;resizable=0;html=1;;align=center;verticalAlign=middle;" connectable="0" vertex="1" parent="aeXs7rcb2RjD_l7bmALQ-19">
          <mxGeometry relative="1" as="geometry" />
        </mxCell>
        <mxCell id="aeXs7rcb2RjD_l7bmALQ-21" value="" style="endArrow=classic;html=1;rounded=0;exitX=0.5;exitY=1;exitDx=0;exitDy=0;entryX=0.5;entryY=0;entryDx=0;entryDy=0;" edge="1" parent="WIyWlLk6GJQsqaUBKTNV-1" source="aeXs7rcb2RjD_l7bmALQ-6" target="aeXs7rcb2RjD_l7bmALQ-2">
          <mxGeometry relative="1" as="geometry">
            <mxPoint x="290" y="370" as="sourcePoint" />
            <mxPoint x="390" y="370" as="targetPoint" />
          </mxGeometry>
        </mxCell>
        <mxCell id="aeXs7rcb2RjD_l7bmALQ-22" value="Memproses pembayaran" style="edgeLabel;resizable=0;html=1;;align=center;verticalAlign=middle;" connectable="0" vertex="1" parent="aeXs7rcb2RjD_l7bmALQ-21">
          <mxGeometry relative="1" as="geometry" />
        </mxCell>
        <mxCell id="aeXs7rcb2RjD_l7bmALQ-23" value="" style="endArrow=classic;html=1;rounded=0;exitX=0.5;exitY=0;exitDx=0;exitDy=0;entryX=0.25;entryY=1;entryDx=0;entryDy=0;edgeStyle=orthogonalEdgeStyle;curved=1;" edge="1" parent="WIyWlLk6GJQsqaUBKTNV-1" source="aeXs7rcb2RjD_l7bmALQ-7" target="aeXs7rcb2RjD_l7bmALQ-0">
          <mxGeometry relative="1" as="geometry">
            <mxPoint x="290" y="370" as="sourcePoint" />
            <mxPoint x="390" y="370" as="targetPoint" />
          </mxGeometry>
        </mxCell>
        <mxCell id="aeXs7rcb2RjD_l7bmALQ-25" value="Tampilkan Pesan Kesalahan" style="edgeLabel;html=1;align=center;verticalAlign=middle;resizable=0;points=[];" vertex="1" connectable="0" parent="aeXs7rcb2RjD_l7bmALQ-23">
          <mxGeometry x="-0.0018" y="-6" relative="1" as="geometry">
            <mxPoint y="1" as="offset" />
          </mxGeometry>
        </mxCell>
        <mxCell id="aeXs7rcb2RjD_l7bmALQ-26" value="" style="endArrow=classic;html=1;rounded=0;exitX=0.5;exitY=1;exitDx=0;exitDy=0;entryX=0.5;entryY=0;entryDx=0;entryDy=0;" edge="1" parent="WIyWlLk6GJQsqaUBKTNV-1" source="aeXs7rcb2RjD_l7bmALQ-2" target="aeXs7rcb2RjD_l7bmALQ-5">
          <mxGeometry relative="1" as="geometry">
            <mxPoint x="290" y="520" as="sourcePoint" />
            <mxPoint x="390" y="520" as="targetPoint" />
          </mxGeometry>
        </mxCell>
        <mxCell id="aeXs7rcb2RjD_l7bmALQ-27" value="Pembayaran Berhasil" style="edgeLabel;resizable=0;html=1;;align=center;verticalAlign=middle;" connectable="0" vertex="1" parent="aeXs7rcb2RjD_l7bmALQ-26">
          <mxGeometry relative="1" as="geometry" />
        </mxCell>
        <mxCell id="aeXs7rcb2RjD_l7bmALQ-28" value="" style="endArrow=classic;html=1;rounded=0;exitX=1;exitY=0.5;exitDx=0;exitDy=0;entryX=1;entryY=0.5;entryDx=0;entryDy=0;edgeStyle=orthogonalEdgeStyle;curved=1;" edge="1" parent="WIyWlLk6GJQsqaUBKTNV-1" source="aeXs7rcb2RjD_l7bmALQ-3" target="aeXs7rcb2RjD_l7bmALQ-0">
          <mxGeometry relative="1" as="geometry">
            <mxPoint x="290" y="640" as="sourcePoint" />
            <mxPoint x="390" y="640" as="targetPoint" />
            <Array as="points">
              <mxPoint x="760" y="1150" />
              <mxPoint x="760" y="155" />
            </Array>
          </mxGeometry>
        </mxCell>
        <mxCell id="aeXs7rcb2RjD_l7bmALQ-29" value="Kimball ke Status Awal" style="edgeLabel;resizable=0;html=1;;align=center;verticalAlign=middle;" connectable="0" vertex="1" parent="aeXs7rcb2RjD_l7bmALQ-28">
          <mxGeometry relative="1" as="geometry" />
        </mxCell>
        <mxCell id="aeXs7rcb2RjD_l7bmALQ-30" value="" style="endArrow=classic;html=1;rounded=0;exitX=0.5;exitY=0;exitDx=0;exitDy=0;entryX=0.75;entryY=1;entryDx=0;entryDy=0;edgeStyle=orthogonalEdgeStyle;curved=1;" edge="1" parent="WIyWlLk6GJQsqaUBKTNV-1" source="aeXs7rcb2RjD_l7bmALQ-8" target="aeXs7rcb2RjD_l7bmALQ-0">
          <mxGeometry relative="1" as="geometry">
            <mxPoint x="290" y="640" as="sourcePoint" />
            <mxPoint x="390" y="640" as="targetPoint" />
            <Array as="points">
              <mxPoint x="640" y="515" />
              <mxPoint x="620" y="515" />
              <mxPoint x="620" y="190" />
            </Array>
          </mxGeometry>
        </mxCell>
        <mxCell id="aeXs7rcb2RjD_l7bmALQ-31" value="Tampilkan Pesan Kesalahan" style="edgeLabel;resizable=0;html=1;;align=center;verticalAlign=middle;" connectable="0" vertex="1" parent="aeXs7rcb2RjD_l7bmALQ-30">
          <mxGeometry relative="1" as="geometry" />
        </mxCell>
        <mxCell id="aeXs7rcb2RjD_l7bmALQ-32" value="" style="endArrow=classic;html=1;rounded=0;exitX=1;exitY=0.5;exitDx=0;exitDy=0;entryX=0;entryY=0.5;entryDx=0;entryDy=0;" edge="1" parent="WIyWlLk6GJQsqaUBKTNV-1" source="aeXs7rcb2RjD_l7bmALQ-2" target="aeXs7rcb2RjD_l7bmALQ-8">
          <mxGeometry relative="1" as="geometry">
            <mxPoint x="290" y="640" as="sourcePoint" />
            <mxPoint x="390" y="640" as="targetPoint" />
          </mxGeometry>
        </mxCell>
        <mxCell id="aeXs7rcb2RjD_l7bmALQ-33" value="Pembayaran Gagal" style="edgeLabel;resizable=0;html=1;;align=center;verticalAlign=middle;" connectable="0" vertex="1" parent="aeXs7rcb2RjD_l7bmALQ-32">
          <mxGeometry relative="1" as="geometry" />
        </mxCell>
        <mxCell id="aeXs7rcb2RjD_l7bmALQ-34" value="" style="endArrow=classic;html=1;rounded=0;exitX=0.5;exitY=1;exitDx=0;exitDy=0;entryX=0;entryY=0.5;entryDx=0;entryDy=0;edgeStyle=entityRelationEdgeStyle;elbow=vertical;" edge="1" parent="WIyWlLk6GJQsqaUBKTNV-1" source="aeXs7rcb2RjD_l7bmALQ-4" target="aeXs7rcb2RjD_l7bmALQ-3">
          <mxGeometry relative="1" as="geometry">
            <mxPoint x="290" y="640" as="sourcePoint" />
            <mxPoint x="390" y="640" as="targetPoint" />
            <Array as="points">
              <mxPoint x="260" y="1120" />
              <mxPoint x="320" y="1110" />
            </Array>
          </mxGeometry>
        </mxCell>
        <mxCell id="aeXs7rcb2RjD_l7bmALQ-38" value="Menghasilkan Laporan" style="edgeLabel;html=1;align=center;verticalAlign=middle;resizable=0;points=[];" vertex="1" connectable="0" parent="aeXs7rcb2RjD_l7bmALQ-34">
          <mxGeometry x="0.0122" y="-5" relative="1" as="geometry">
            <mxPoint as="offset" />
          </mxGeometry>
        </mxCell>
        <mxCell id="aeXs7rcb2RjD_l7bmALQ-36" value="" style="endArrow=classic;html=1;rounded=0;exitX=0.5;exitY=1;exitDx=0;exitDy=0;entryX=0.5;entryY=0;entryDx=0;entryDy=0;" edge="1" parent="WIyWlLk6GJQsqaUBKTNV-1" source="aeXs7rcb2RjD_l7bmALQ-5" target="aeXs7rcb2RjD_l7bmALQ-4">
          <mxGeometry relative="1" as="geometry">
            <mxPoint x="290" y="640" as="sourcePoint" />
            <mxPoint x="390" y="640" as="targetPoint" />
            <Array as="points" />
          </mxGeometry>
        </mxCell>
        <mxCell id="aeXs7rcb2RjD_l7bmALQ-37" value="Mencatat Penjualan" style="edgeLabel;resizable=0;html=1;;align=center;verticalAlign=middle;" connectable="0" vertex="1" parent="aeXs7rcb2RjD_l7bmALQ-36">
          <mxGeometry relative="1" as="geometry" />
        </mxCell>
      </root>
    </mxGraphModel>
  </diagram>
</mxfile>
